<?xml version="1.0" encoding="utf-8"?>
<!-- Generator: Adobe Illustrator 22.1.0, SVG Export Plug-In . SVG Version: 6.00 Build 0)  -->
<svg version="1.1" id="Layer_1" xmlns="http://www.w3.org/2000/svg" xmlns:xlink="http://www.w3.org/1999/xlink" x="0px" y="0px"
	 viewBox="0 0 72 72" style="enable-background:new 0 0 72 72;" xml:space="preserve">
<style type="text/css">
	.st0{fill:#676A75;}
	.st1{fill:#CE7B34;}
	.st2{fill:#310E31;}
	.st3{fill:#BA6328;}
	.st4{fill:#585B67;}
	.st5{fill:#444751;}
	.st6{fill:#4D9954;}
	.st7{fill:#787B82;}
	.st8{fill:#FFE278;}
	.st9{fill:#F6B545;}
	.st10{fill:#FFCB5B;}
	.st11{fill:#80C56D;}
	.st12{fill:#5BAB5E;}
	.st13{fill:#3A8E4E;}
	.st14{fill:#A35425;}
	.st15{fill:#C97629;}
	.st16{fill:#F19920;}
	.st17{fill:#E47E25;}
	.st18{fill:#FFE37B;}
	.st19{fill:#DA8C36;}
	.st20{fill:#B86328;}
	.st21{fill:none;}
	.st22{fill:#B46229;}
	.st23{fill:#FFE27A;}
</style>
<g>
	<g>
		<polygon class="st11" points="42.7,47 50,11.7 36.3,8.9 29.2,13.6 23.1,42.9 		"/>
	</g>
	<g>
		<circle class="st12" cx="36.6" cy="27.3" r="5"/>
	</g>
	<g>
		<path class="st12" d="M24.3,42.2l1,0.2l1,0.2L40,45.4l1,0.2l1,0.2l6.9-33.3l-1-0.2l-1-0.2L36.1,9.9L31.8,11l-1.6,2.7L24.3,42.2z
			 M41,40.5c-1.6-0.3-3.2,0.7-3.5,2.3l-7.8-1.6c0.3-1.6-0.7-3.2-2.3-3.5l4.9-23.5c1.6,0.3,3.2-0.7,3.5-2.3l7.8,1.6
			c-0.3,1.6,0.7,3.2,2.3,3.5L41,40.5z"/>
	</g>
	<g>
		<circle class="st12" cx="34.5" cy="37.1" r="2"/>
	</g>
	<g>
		<circle class="st12" cx="38.6" cy="17.5" r="2"/>
	</g>
	<path class="st2" d="M50.2,10.8L37.5,8.1C37,8,36.8,8,36,8c-1,0-2,0.4-2.9,1l-2.6,1.7c-1.1,0.7-1.9,1.8-2.3,3.1
		c-0.1,0.2-0.1,0.4-0.2,0.6l-5.9,28.4c-0.1,0.3,0,0.5,0.1,0.8s0.4,0.4,0.6,0.4L42.5,48c0.1,0,0.1,0,0.2,0c0.5,0,0.9-0.3,1-0.8
		L51,11.9C51.1,11.4,50.7,10.9,50.2,10.8z M33.8,10.9l-0.3,1.6L32,12.1L33.8,10.9z M41.9,45.8l-17.6-3.7L30,14.7
		c0.1-0.3,0.2-0.5,0.4-0.6c0.2-0.1,0.5-0.2,0.8-0.1l2.9,0.6c0.5,0.1,1.1-0.2,1.2-0.8l0.6-2.9c0.1-0.3,0.2-0.5,0.4-0.6
		c0.2-0.1,0.5-0.2,0.8-0.1l11.7,2.4L41.9,45.8z"/>
</g>
<g>
	<g>
		
			<rect x="22.7" y="25.5" transform="matrix(0.8952 -0.4457 0.4457 0.8952 -11.6771 21.4088)" class="st11" width="34" height="20"/>
	</g>
	<g>
		<circle class="st12" cx="39.7" cy="35.5" r="5"/>
	</g>
	<g>
		<path class="st12" d="M21.3,34.6l0.4,0.9l0.4,0.9l6.2,12.5l0.4,0.9l0.4,0.9L58,36.5l-0.4-0.9l-0.4-0.9l-6.2-12.5l-0.4-0.9L50,20.3
			L21.3,34.6z M32.9,46.7c-0.7-1.5-2.5-2.1-4-1.3l-3.6-7.2c1.5-0.7,2.1-2.5,1.3-4l19.7-9.8c0.7,1.5,2.5,2.1,4,1.3l3.6,7.2
			c-1.5,0.7-2.1,2.5-1.3,4L32.9,46.7z"/>
	</g>
	<g>
		<circle class="st12" cx="47.7" cy="31.5" r="2"/>
	</g>
	<g>
		<circle class="st12" cx="31.6" cy="39.5" r="2"/>
	</g>
	<g>
		<path class="st12" d="M44,33h-5v-9c0,0,3.5-1.7,4-1.2c0.6,0.5,1,1.3,1,2.2V33z"/>
	</g>
	<g>
		<path class="st13" d="M39,28l5-2.5V25c0-0.5-0.2-1-0.4-1.5L39,25.8V28z"/>
	</g>
	<g>
		<path class="st2" d="M28.9,53.1c-0.4,0-0.7-0.2-0.9-0.6l-8.9-17.9c-0.1-0.2-0.1-0.5-0.1-0.8c0.1-0.3,0.3-0.5,0.5-0.6L50,18.1
			c0.5-0.2,1.1,0,1.3,0.4l8.9,17.9c0.1,0.2,0.1,0.5,0.1,0.8c-0.1,0.3-0.3,0.5-0.5,0.6L29.4,53C29.2,53,29.1,53.1,28.9,53.1z
			 M21.3,34.6l8,16.1L58,36.5l-8-16.1L21.3,34.6z"/>
	</g>
</g>
<g>
	<g>
		<path class="st11" d="M41,26v19H21V22h16C39.2,22,41,23.8,41,26z"/>
	</g>
	<g>
		<path class="st12" d="M38,22v17c-1.7,0-3,1.3-3,3h-8c0-1.7-1.3-3-3-3V22h-2v22h1h1h14h1h1V23L38,22z"/>
	</g>
	<g>
		<circle class="st12" cx="31" cy="28" r="5"/>
	</g>
	<g>
		<circle class="st12" cx="31" cy="37" r="2"/>
	</g>
	<g>
		<path class="st2" d="M41,46H21c-0.6,0-1-0.4-1-1V28c0-0.6,0.4-1,1-1s1,0.4,1,1v16h18V26c0-0.6,0.4-1,1-1s1,0.4,1,1v19
			C42,45.6,41.6,46,41,46z"/>
	</g>
	<g>
		<rect x="30" y="23" class="st12" width="10" height="5"/>
	</g>
	<g>
		<path class="st13" d="M31,23c-0.3,0-0.7,0-1,0.1V28h6C36,25.2,33.8,23,31,23z"/>
	</g>
	<g>
		<rect x="38" y="23" class="st13" width="2" height="5"/>
	</g>
	<g>
		<path class="st11" d="M33,26v2H13v-2c0-2.2,1.8-4,4-4h20h0C34.8,22,33,23.8,33,26z"/>
	</g>
	<g>
		<path class="st12" d="M31.1,22c-1.7,0-3.3,1.3-3.7,3h-8c0.4-1.7-0.6-3-2.3-3H17c-0.7,0-2.4,0.7-3,1v4h1h1h14h1h1l1.1-5H31.1z"/>
	</g>
	<g>
		<path class="st2" d="M33,29H13c-0.6,0-1-0.4-1-1v-2c0-2.8,2.2-5,5-5h20c0.6,0,1,0.4,1,1s-0.4,1-1,1c-1.7,0-3,1.3-3,3v2
			C34,28.6,33.6,29,33,29z M14,27h18v-1c0-1.1,0.4-2.2,1-3H17c-1.7,0-3,1.3-3,3V27z"/>
	</g>
	<g>
		<path class="st2" d="M41,27c-0.6,0-1-0.4-1-1c0-1.7-1.3-3-3-3c-0.6,0-1-0.4-1-1s0.4-1,1-1c2.8,0,5,2.2,5,5C42,26.6,41.6,27,41,27z
			"/>
	</g>
</g>
<g>
	<path class="st14" d="M60,71h-6V33h6c1.1,0,2,0.9,2,2v34C62,70.1,61.1,71,60,71z"/>
</g>
<g>
	<path class="st15" d="M56,71H16c-1.1,0-2-0.9-2-2V35c0-1.1,0.9-2,2-2h40c1.1,0,2,0.9,2,2v34C58,70.1,57.1,71,56,71z"/>
</g>
<g>
	<path class="st2" d="M67,72H5c-0.6,0-1-0.4-1-1s0.4-1,1-1h62c0.6,0,1,0.4,1,1S67.6,72,67,72z"/>
</g>
<g>
	<g>
		<g>
			<path class="st19" d="M33,54h-1c-0.3,0-0.5-0.2-0.5-0.5S31.7,53,32,53h1c0.3,0,0.5,0.2,0.5,0.5S33.3,54,33,54z"/>
		</g>
	</g>
	<g>
		<g>
			<path class="st14" d="M29.5,56.5c-0.3,0-0.5-0.2-0.5-0.5c0-1.1,0.9-2,2-2h3c0.3,0,0.5,0.2,0.5,0.5S34.3,55,34,55h-3
				c-0.6,0-1,0.4-1,1C30,56.3,29.8,56.5,29.5,56.5z"/>
		</g>
	</g>
	<g>
		<g>
			<path class="st19" d="M31.6,58H31c-0.3,0-0.5-0.2-0.5-0.5S30.7,57,31,57h0.6c0.3,0,0.5,0.2,0.5,0.5S31.9,58,31.6,58z"/>
		</g>
	</g>
	<g>
		<g>
			<path class="st19" d="M33,59c-0.3,0-0.5-0.2-0.5-0.5S32.7,58,33,58c0.4,0,0.8-0.3,0.9-0.7c0.1-0.2,0.2-0.3,0.4-0.3
				c1.5-0.2,2.6-1.5,2.6-3c0-0.3,0.2-0.5,0.5-0.5S38,53.7,38,54c0,1.9-1.4,3.6-3.2,3.9C34.4,58.6,33.8,59,33,59z"/>
		</g>
	</g>
	<g>
		<g>
			<path class="st14" d="M34,51h-2c-0.3,0-0.5-0.2-0.5-0.5S31.7,50,32,50h2c0.3,0,0.5,0.2,0.5,0.5S34.3,51,34,51z"/>
		</g>
	</g>
	<g>
		<g>
			<path class="st19" d="M35,50h-3c-0.3,0-0.5-0.2-0.5-0.5S31.7,49,32,49h3c0.6,0,1-0.4,1-1c0-0.3,0.2-0.5,0.5-0.5S37,47.7,37,48
				C37,49.1,36.1,50,35,50z"/>
		</g>
	</g>
	<g>
		<g>
			<path class="st14" d="M28.5,50.5c-0.3,0-0.5-0.2-0.5-0.5c0-1.9,1.4-3.6,3.2-3.9c0.3-0.7,1-1.1,1.8-1.1c0.3,0,0.5,0.2,0.5,0.5
				S33.3,46,33,46c-0.4,0-0.8,0.3-0.9,0.7C32,46.9,31.8,47,31.6,47c-1.5,0.2-2.6,1.5-2.6,3C29,50.3,28.8,50.5,28.5,50.5z"/>
		</g>
	</g>
	<g>
		<path class="st20" d="M34,51h-2c-0.6,0-1-0.4-1-1s0.4-1,1-1h3c0.6,0,1-0.4,1-1s-0.4-1-1-1h-1l0,0c0-0.6-0.4-1-1-1
			c-0.6,0-1,0.4-1,1l0,0c-1.7,0-3,1.3-3,3s1.3,3,3,3h2c0.6,0,1,0.4,1,1s-0.4,1-1,1h-3c-0.6,0-1,0.4-1,1s0.4,1,1,1h1l0,0
			c0,0.6,0.4,1,1,1c0.6,0,1-0.4,1-1l0,0c1.7,0,3-1.3,3-3S35.7,51,34,51z"/>
	</g>
</g>
<g>
	<path class="st14" d="M48,49c-2.9,0-5.3,2.5-5,5.5c0.2,2.6,2.6,4.5,5.2,4.5l5.2,0c1.7,0,2.6,0.9,2.6,2v6c0,1.1-0.9,2-2,2H42h-3h0
		c-1.2,0-2.2-1-2-2.2c0.1-0.9,0-1.8-0.2-2.7c-0.7-3-3.2-5.4-6.3-5.9c-5.1-0.9-9.5,3-9.5,7.9c0,1.1,0.2,2.1,0.6,3H24
		c-0.3,0-0.5,0.2-0.5,0.5S23.7,70,24,70h32c0.6,0,1-0.4,1-1V59v-2v-8H48z"/>
</g>
<g>
	<path class="st19" d="M35,34H19h-1.5H15v34c0,0.6,0.4,1,1,1h1c0.6,0,1-0.4,1-1V38c0-1.7,1.3-3,3-3h14c0.3,0,0.5-0.2,0.5-0.5
		C35.5,34.2,35.3,34,35,34z"/>
</g>
<g>
	<path class="st15" d="M62,57H48c-2.8,0-5-2.2-5-5v0c0-2.8,2.2-5,5-5h14V57z"/>
</g>
<g>
	<path class="st21" d="M48,55c-1.7,0-3-1.3-3-3s1.3-3,3-3h9v6H48z"/>
</g>
<path class="st2" d="M63,46V35c0-1.7-1.3-3-3-3h-4h-1H14c-0.6,0-1,0.4-1,1v38c0,0.6,0.4,1,1,1h41h1h4c1.7,0,3-1.3,3-3V58
	c0.6,0,1-0.4,1-1V47C64,46.4,63.6,46,63,46z M61,35v11h-2V35c0-0.4-0.1-0.7-0.2-1H60C60.6,34,61,34.4,61,35z M62,56H48
	c-2.2,0-4-1.8-4-4s1.8-4,4-4h14V56z M55,70H15V34h40h1c0.6,0,1,0.4,1,1v11h-9c-3.3,0-6,2.7-6,6s2.7,6,6,6h9v11c0,0.6-0.4,1-1,1H55z
	 M61,69c0,0.6-0.4,1-1,1h-1.2c0.1-0.3,0.2-0.6,0.2-1V58h2V69z"/>
<g>
	<g>
		<path class="st19" d="M44.5,52.5c-0.3,0-0.5-0.2-0.5-0.5c0-2.2,1.8-4,4-4h6.5c0.3,0,0.5,0.2,0.5,0.5S54.8,49,54.5,49H48
			c-1.7,0-3,1.3-3,3C45,52.3,44.8,52.5,44.5,52.5z"/>
	</g>
</g>
<g>
	<circle class="st2" cx="16.5" cy="35.5" r="0.5"/>
</g>
<g>
	<circle class="st2" cx="19.5" cy="35.5" r="0.5"/>
</g>
<g>
	<circle class="st2" cx="22.5" cy="35.5" r="0.5"/>
</g>
<g>
	<circle class="st2" cx="25.5" cy="35.5" r="0.5"/>
</g>
<g>
	<circle class="st2" cx="28.5" cy="35.5" r="0.5"/>
</g>
<g>
	<circle class="st2" cx="31.5" cy="35.5" r="0.5"/>
</g>
<g>
	<circle class="st2" cx="34.5" cy="35.5" r="0.5"/>
</g>
<g>
	<circle class="st2" cx="37.5" cy="35.5" r="0.5"/>
</g>
<g>
	<circle class="st2" cx="40.5" cy="35.5" r="0.5"/>
</g>
<g>
	<circle class="st2" cx="43.5" cy="35.5" r="0.5"/>
</g>
<g>
	<circle class="st2" cx="46.5" cy="35.5" r="0.5"/>
</g>
<g>
	<circle class="st2" cx="49.5" cy="35.5" r="0.5"/>
</g>
<g>
	<circle class="st2" cx="52.5" cy="35.5" r="0.5"/>
</g>
<g>
	<circle class="st2" cx="55.5" cy="35.5" r="0.5"/>
</g>
<g>
	<circle class="st2" cx="55.5" cy="38.5" r="0.5"/>
</g>
<g>
	<circle class="st2" cx="55.5" cy="41.5" r="0.5"/>
</g>
<g>
	<circle class="st2" cx="55.5" cy="44.5" r="0.5"/>
</g>
<g>
	<circle class="st2" cx="55.5" cy="59.5" r="0.5"/>
</g>
<g>
	<circle class="st2" cx="55.5" cy="62.5" r="0.5"/>
</g>
<g>
	<circle class="st2" cx="55.5" cy="65.5" r="0.5"/>
</g>
<g>
	<circle class="st2" cx="16.5" cy="68.5" r="0.5"/>
</g>
<g>
	<circle class="st2" cx="19.5" cy="68.5" r="0.5"/>
</g>
<g>
	<circle class="st2" cx="22.5" cy="68.5" r="0.5"/>
</g>
<g>
	<circle class="st2" cx="25.5" cy="68.5" r="0.5"/>
</g>
<g>
	<circle class="st2" cx="28.5" cy="68.5" r="0.5"/>
</g>
<g>
	<circle class="st2" cx="31.5" cy="68.5" r="0.5"/>
</g>
<g>
	<circle class="st2" cx="34.5" cy="68.5" r="0.5"/>
</g>
<g>
	<circle class="st2" cx="37.5" cy="68.5" r="0.5"/>
</g>
<g>
	<circle class="st2" cx="40.5" cy="68.5" r="0.5"/>
</g>
<g>
	<circle class="st2" cx="43.5" cy="68.5" r="0.5"/>
</g>
<g>
	<circle class="st2" cx="46.5" cy="68.5" r="0.5"/>
</g>
<g>
	<circle class="st2" cx="49.5" cy="68.5" r="0.5"/>
</g>
<g>
	<circle class="st2" cx="52.5" cy="68.5" r="0.5"/>
</g>
<g>
	<circle class="st2" cx="55.5" cy="68.5" r="0.5"/>
</g>
<g>
	<path class="st22" d="M58,48c-0.6,0-1,0.4-1,1v1.5V54c0,0.6-0.4,1-1,1h-7.5c-0.3,0-0.5,0.2-0.5,0.5s0.2,0.5,0.5,0.5H58h1h3v-8H58z"
		/>
</g>
<g>
	<path class="st14" d="M60,55L60,55c0.6,0,1-0.4,1-1v-4c0-0.6,0.4-1,1-1l0,0v6v1h-3l0,0C59,55.4,59.4,55,60,55z"/>
</g>
<g>
	<g>
		<circle class="st9" cx="48" cy="52" r="2.5"/>
	</g>
	<g>
		<path class="st2" d="M48,50c1.1,0,2,0.9,2,2s-0.9,2-2,2s-2-0.9-2-2S46.9,50,48,50z M48,49c-1.7,0-3,1.3-3,3s1.3,3,3,3s3-1.3,3-3
			S49.7,49,48,49L48,49z"/>
	</g>
</g>
<g>
	<path class="st23" d="M47.5,50.1c-0.7,0.2-1.3,0.7-1.4,1.4c-0.1,0.4-0.1,0.7,0,1.1c0.1,0.5,0.7,0.6,1.1,0.3l1.7-1.7
		c0.3-0.3,0.2-0.9-0.3-1.1C48.2,50,47.9,50,47.5,50.1z"/>
</g>
<g>
	<g>
		<g>
			<rect x="9" y="63" class="st9" width="14" height="4"/>
			<path class="st2" d="M23,68H9c-0.6,0-1-0.4-1-1v-4c0-0.6,0.4-1,1-1h14c0.6,0,1,0.4,1,1v4C24,67.6,23.6,68,23,68z M10,66h12v-2H10
				V66z"/>
		</g>
	</g>
	<g>
		<rect x="10" y="67" class="st9" width="14" height="4"/>
		<path class="st2" d="M24,72H10c-0.6,0-1-0.4-1-1v-4c0-0.6,0.4-1,1-1h14c0.6,0,1,0.4,1,1v4C25,71.6,24.6,72,24,72z M11,70h12v-2H11
			V70z"/>
	</g>
	<g>
		<path class="st16" d="M19,68L19,68c0,0.6-0.4,1-1,1h-0.5c-0.3,0-0.5,0.2-0.5,0.5c0,0.3,0.2,0.5,0.5,0.5H19h0.5H23v-2H19z"/>
	</g>
	<g>
		<rect x="12" y="68" class="st18" width="2" height="2"/>
	</g>
	<g>
		<rect x="15" y="68" class="st18" width="1" height="2"/>
	</g>
	<g>
		<rect x="11" y="64" class="st18" width="2" height="2"/>
	</g>
	<g>
		<rect x="14" y="64" class="st18" width="1" height="2"/>
	</g>
	<g>
		<rect x="21" y="68" class="st17" width="2" height="2"/>
	</g>
	<g>
		<path class="st16" d="M18,64L18,64c0,0.6-0.4,1-1,1h-0.5c-0.3,0-0.5,0.2-0.5,0.5c0,0.3,0.2,0.5,0.5,0.5H18h0.5H22v-2H18z"/>
	</g>
	<g>
		<rect x="20" y="64" class="st17" width="2" height="2"/>
	</g>
	<g>
		<g>
			<rect x="11" y="59" class="st9" width="14" height="4"/>
			<path class="st2" d="M25,64H11c-0.6,0-1-0.4-1-1v-4c0-0.6,0.4-1,1-1h14c0.6,0,1,0.4,1,1v4C26,63.6,25.6,64,25,64z M12,62h12v-2
				H12V62z"/>
		</g>
	</g>
	<g>
		<rect x="13" y="60" class="st18" width="2" height="2"/>
	</g>
	<g>
		<rect x="16" y="60" class="st18" width="1" height="2"/>
	</g>
	<g>
		<path class="st16" d="M20,60L20,60c0,0.6-0.4,1-1,1h-0.5c-0.3,0-0.5,0.2-0.5,0.5c0,0.3,0.2,0.5,0.5,0.5H20h0.5H24v-2H20z"/>
	</g>
	<g>
		<rect x="22" y="60" class="st17" width="2" height="2"/>
	</g>
</g>
<g>
	<g>
		<circle class="st9" cx="27" cy="64" r="7"/>
		<path class="st2" d="M27,72c-4.4,0-8-3.6-8-8s3.6-8,8-8s8,3.6,8,8S31.4,72,27,72z M27,58c-3.3,0-6,2.7-6,6s2.7,6,6,6s6-2.7,6-6
			S30.3,58,27,58z"/>
	</g>
	<g>
		<path class="st10" d="M25.5,58.2c-2.1,0.5-3.8,2.2-4.3,4.3c-0.3,1.1-0.2,2.2,0.1,3.2c0.2,0.7,1.2,1,1.7,0.4l6.1-6.1
			c0.5-0.5,0.3-1.5-0.4-1.7C27.7,58,26.6,57.9,25.5,58.2z"/>
	</g>
	<g>
		<path class="st10" d="M24.3,68.7l7.4-7.4c0.2-0.2,0.3-0.6,0.1-0.9c0,0,0,0,0,0C31.5,60,31,60,30.7,60.3l-7.4,7.4
			C23,68,23,68.5,23.4,68.8c0,0,0,0,0,0C23.7,69,24,69,24.3,68.7z"/>
	</g>
	<g>
		<g>
			<path class="st18" d="M21.6,63.5C21.6,63.5,21.5,63.5,21.6,63.5c-0.4-0.1-0.5-0.3-0.5-0.6c0.4-2.4,2.4-4.4,4.8-4.8
				c0.3,0,0.5,0.1,0.6,0.4c0.1,0.3-0.1,0.5-0.4,0.6c-2,0.4-3.6,2-4,4C22,63.3,21.8,63.5,21.6,63.5z"/>
		</g>
	</g>
	<g>
		<g>
			<path class="st16" d="M27,70c-0.3,0-0.5-0.2-0.5-0.5S26.7,69,27,69c2.8,0,5-2.2,5-5c0-0.3,0.2-0.5,0.5-0.5S33,63.7,33,64
				C33,67.3,30.3,70,27,70z"/>
		</g>
	</g>
</g>
<g>
	<polygon class="st2" points="27,61 27.7,63 30,63 28.1,64.7 28.9,67 27,65.6 25.1,67 25.9,64.7 24,63 26.3,63 	"/>
</g>
</svg>
